<svg xmlns="http://www.w3.org/2000/svg" width="143" height="72" viewBox="0 0 143 72" fill="none"><g clip-path="url(#a)"><path d="m76.218 35.503.09-.007.14.148-.076.036-.154-.174v-.003Zm-.677 3.964-.066.136-.191-.174.025-.103.23.14h.002Zm-.811-.605-.07.116-.2-.169.01-.153.258.209.002-.003Zm25.55-22.715v.227l-.143.066v-.315l.143.023Zm-2.362-2.754-.017.388-.161-.01v-.353l.176-.025h.002ZM72.406 31.15s.25.561.302.657l.212.375-.06.214s-.29-.561-.303-.6a31.847 31.847 0 0 0-.302-.626l-.053-.164.033-.158.168.3.003.002Zm-1.488 1.108a.748.748 0 0 1 .068.252l.173.352-.08.108s-.093-.17-.106-.226c-.012-.056-.075-.144-.108-.234-.033-.091-.068-.167-.068-.167l-.088-.216-.046-.111.043-.11.21.35m-1.932 1.525c0 .035.088.227.088.227l-.176-.131-.056-.197-.063-.191h.081c.066 0 .126.257.126.292Zm-.166-.413h-.088s-.053-.143-.066-.196c-.012-.056-.093-.159-.093-.159l.103.01.146.348-.002-.003Zm15.624 9.989c.068 0-.028.123-.028.123s-.231-.015-.304-.015c-.073 0-.272-.048-.272-.048h-.098l.067-.095s.57.038.635.038m8.038-.343v.108l-.187.076.033-.202c.007-.052.154.02.154.02m.838-.014-.03.163-.242.134-.28.095-.01-.108.564-.285h-.002Zm-2.976 1.543.017.083-.181.093-.305.109-.259.053.035-.109.695-.229h-.002Zm-4.147.705v.063L86 45.34l-.416-.046.086-.1c-.046 0 .523.063.523.063m3.503-2.805.536-.192.615-.153v.103s-.323.085-.368.108c-.045.025-.31.106-.4.141-.093.033-.34.086-.34.086l-.244.083.065-.119.136-.055v-.002Zm-.818.229.463-.121-.08.146-.436.088-.363.048-.314.161s.12-.033.173-.093c.053-.06.554-.227.554-.227m-2.598.33-.008.08-.622-.024.033-.069.597.013Zm-.743-.053-.028.144-.77-.053.045-.04.755-.05h-.002Zm-5.278 1.554-.028.065-.506-.136.018-.103.516.171v.003Zm-1.85-1.272.057.1-.496-.14v-.106l.438.146Zm-.613-.244-.01.098-.392-.181-.016-.093.421.176h-.003Zm-1.9-2.581-.036.159-.171-.109v-.138l.206.085v.003Zm-6.694-4.17c.086.146.235.315.235.315l-.106.015-.161-.161-.252-.426h.118s.078.111.164.257m2.727 1.712.534.62s-.255-.139-.295-.166a.762.762 0 0 1-.204-.237c-.045-.096-.32-.29-.357-.347-.038-.058-.31-.275-.31-.275l.038-.166.594.569v.002Zm3.722 5.885.156.108.11.06-.037.02s-.154-.062-.207-.097c-.055-.033-.07-.023-.1-.046-.03-.022-.013-.083-.013-.083l.09.035v.003Zm-.784-.388.278.172.042.022s-.058.08-.11.04c-.05-.04-.167-.105-.197-.126-.03-.02-.11-.11-.11-.11s-.01-.08-.033-.101c-.03-.025.133.103.133.103m-.937-.584c.05.033.315.206.365.23.05.022 0 .105 0 .105s-.14-.068-.244-.141c-.103-.073-.168-.09-.254-.146-.088-.055-.161-.139-.161-.139l-.005-.11s.244.168.297.201m-1.803-1.297.174.078.08.099s.149.138.184.15c.038.013.116.02.171.094.056.073.101.103.171.146l.17.103.062.086.131.085.154.076v.128s-.388-.226-.428-.272c-.04-.045-.509-.408-.509-.408l-.254-.206-.109-.161.003.002Zm-.748-.702c.068.07.171.166.237.254a.383.383 0 0 0 .168.118s.013.03.013.068c0 .038-.005.099-.005.099s-.018 0-.055-.04c-.038-.04-.07-.064-.124-.15-.053-.085-.083-.06-.13-.1-.049-.04-.091-.144-.091-.144l-.159-.12-.055-.036.005-.16s.128.14.196.21Zm-.864-.766s.328.323.386.375c.058.053.191.187.191.187l-.028.096s-.113-.104-.148-.124a.767.767 0 0 1-.194-.219.537.537 0 0 0-.144-.174 10.758 10.758 0 0 1-.246-.209s-.013-.272-.013-.216c0-.053.201.284.201.284m-.901-1.017c.068.076.176.209.262.297.085.088.199.224.199.224l-.023.159s-.007-.018-.078-.068c-.068-.05-.093-.108-.13-.174-.039-.065-.112-.085-.157-.126-.045-.038-.1-.14-.179-.236-.078-.096-.073-.086-.106-.129-.032-.04-.04-.159-.04-.199 0-.04.184.174.252.252Zm-1.015-1.29c.114.104.134.122.184.205.053.083.086.068.161.196.078.126.073.124.103.176.028.053.05.05.06.114.01.063.059.105-.03.08-.087-.025-.085.003-.145-.065-.06-.068-.096-.129-.167-.232-.07-.1-.088-.138-.16-.242-.074-.1-.094-.12-.094-.163 0-.043.02-.129.02-.129s-.043-.042.07.063m-.619-.85c.043.06.083.06.131.133.046.07.111.138.111.138s-.023-.012.086.096c.105.11.148.113.148.209 0 .096-.1.191-.146.116-.043-.078-.06-.05-.1-.197-.04-.148-.048-.113-.091-.199a.309.309 0 0 0-.093-.12s-.086-.235-.046-.174m-.37-.448.056.042s.176.068.201.116c.025.048.043.05.043.098s.007.094.007.094l-.065.007s-.055.038-.1-.043c-.044-.078-.069-.113-.069-.113l-.073-.204v.003Zm-.436-.975c.023.053.059.113.091.189.033.075.02.053.07.169.054.115.094.18.094.18s.033.066.033.122c0 .055 0 .058-.023.113s-.01 0-.169-.294c-.158-.295-.03-.078-.03-.078s-.033-.066-.04-.147a.56.56 0 0 0-.111-.269.405.405 0 0 1-.09-.227c0-.063.15.192.175.242Zm-.528-1.156s-.076.038-.09.146l-.051-.148v-.139c0-.065.14.141.14.141Zm8.382-10.235.184-.099c.181-.098.066-.022.222-.065.153-.045.17 0 .17 0s.066.033.21.055c.143.023.06.129.06.129v.12c0 .089-.017.033-.05.17-.033.138-.116.105-.116.105l-.227.023s-.032 0-.153.138c-.121.136-.161.043-.161.043s-.066 0-.197-.055c-.13-.056-.073-.134-.073-.134v-.26c0-.11.018-.115.106-.198M96.551 39.22l.113-.116c.063-.063.048-.023.088-.088.04-.066.089-.28.109-.385.022-.106.08-.048.16-.111.082-.063.041-.09.041-.09l.063-.119c.048-.088.043-.033.126-.033s.08-.083.128-.186 0-.043.026-.154c.025-.11 0-.09.224-.264.224-.174.04-.038.148-.159.109-.12.023-.015.076-.126.055-.108.043-.108.058-.249.015-.14.098-.078.239-.063.138.015-.015.063-.098.144-.086.08-.013.01-.023.158-.01.146 0 .058-.033.139a.471.471 0 0 1-.113.179c-.07.08-.07.083-.171.17-.103.089-.098.102-.169.154-.07.056-.068.05-.133.099-.066.047-.043.078-.066.168-.022.091 0 .046-.025.119s-.065.241-.201.33c-.136.088-.066.128-.21.219-.14.093-.362.259-.362.259m-12.34-.534c.095-.015.042-.043.128-.055.085-.01.075.022.158.055.08.033.078.03.136.03.058 0 .224.01.552.043.327.033 0 .038.088.063l-.096.068-.211-.015s-.154-.023-.234-.045c-.081-.023-.217-.01-.217-.01s-.199-.033-.307-.048c-.109-.015-.093-.073.002-.088m-2.805-.64s.083.023.187.055c.1.033.055.05.143.05s.121-.022.446.034c.322.055.105.047.224.118.118.07.138.096.138.096s.28 0 .501.042c.224.043.21.099.343.136.133.038.106.033.209.08.103.049-.184.011-.184.011h-.302l-.33-.023s-.164-.055-.257-.108c-.09-.055-.123-.033-.123-.033s-.121-.042-.202-.065c-.08-.023-.186-.01-.256-.023-.07-.01-.073-.043-.073-.043s-.076-.055-.34-.168c-.262-.114-.066-.03-.17-.073-.102-.043.049-.086.049-.086m-6.315-5.164s.025.032.075.136c.048.105 0 .09 0 .136 0 .045-.045-.04-.098-.04 0 0-.066-.074-.098-.157-.033-.083 0-.123 0-.176 0-.053.12.098.12.098m-.438-.632c.033.068.033.098.033.166s0 .038-.007.106c-.008.066-.018.043-.111-.086-.093-.128-.04-.068-.066-.176-.025-.106 0-.053.026-.106.025-.05.095.026.128.093m.798 1.118.149.184.11.134.18.247.055.093s.05.11.126.16c.075.051.045.051.103.066.058.016.08.146.113.272.033.126.05.093.141.151.088.058.03.03.098.056.07.025.207.168.207.168l.04.134.136.161s.121.096.201.189c.081.09.064.106.064.106s.037.053.11.12c.073.071.076.059.114.116.035.06.201.144.282.207.08.063.153.088.246.146a.37.37 0 0 1 .119.106s.022.047.073.118c.053.068.043.08.113.156s.063.056.063.056.103.037.199.083c.096.047.128.06.199.093.07.032.166.143.294.199.129.055.073.07.073.07s.076.033.187.124c.11.09.08.065.176.12.096.056.126.066.292.126.166.058.046.015.302.166.257.152.162.116.295.187.13.07.204.113.204.113l.25.139s-.046 0-.185-.015l-.136-.015-.073-.04s-.055-.01-.153-.044c-.098-.032-.04-.015-.25-.103-.209-.088-.08-.088-.08-.088l-.237-.088s-.032-.015-.116-.106c-.085-.09 0-.012-.105-.058-.109-.048-.03-.015-.159-.11a.721.721 0 0 0-.277-.121s-.048-.048-.13-.074c-.087-.025-.011-.095-.011-.095s-.023 0-.103-.043c-.08-.043-.086-.04-.086-.04l-.118-.073c-.063-.04-.096-.026-.176-.099-.081-.073-.204-.095-.204-.095s-.167-.144-.288-.257c-.12-.113-.047-.023-.08-.09-.033-.071-.048-.038-.098-.124s-.066-.01-.131-.08c-.066-.071-.088-.132-.088-.132s-.066-.047-.136-.047-.27-.285-.27-.285l-.07-.045-.109-.146s-.105-.096-.249-.275c-.14-.178-.116-.078-.116-.078s-.128-.181-.241-.32c-.114-.138-.114-.11-.21-.199-.095-.088-.037-.015-.077-.19-.04-.177-.078-.132-.078-.132s-.066-.023-.144-.098c-.078-.076 0-.093 0-.093l-.07-.134-.084-.12s-.196-.237-.249-.305c-.05-.068.083-.108.083-.108M72.527 29.1s.01-.01.01.201c0 .212.065.487.065.487s.01.118.073.173c.063.056.099.01.149.154.053.143.098.234.113.297.015.063.323.32.355.458.033.139.164.34.164.34l.274.459s-.035-.056.114.209c.15.264.194.312.216.387.023.078.23.34.29.403.058.063.058.08.106.214.047.134-.028.093.057.202.089.108.016.02.17.216.153.197.238.446.238.446s.066-.046.17.113c.06.093.082.302.284.506.02.02.11.124.052.053-.06-.07.043.043.043.043l.131.06s.015.114.056.212c.04.1.272.312.272.312.04.086.156.267.156.267s-.176-.03-.187-.11c-.01-.081-.284-.35-.362-.477-.076-.126-.461-.488-.461-.488s.015-.151-.066-.224c-.08-.073-.057-.09-.156-.171-.098-.081-.14-.19-.216-.303-.078-.113-.066-.126-.103-.194-.038-.067-.023-.136-.126-.229-.103-.09-.136-.05-.192-.163-.055-.114-.052-.121-.1-.194-.048-.073-.016-.04-.114-.161s-.103-.172-.156-.24c-.055-.065-.073-.047-.106-.16-.032-.114.058.102-.042-.187-.104-.29-.076-.237-.104-.29-.025-.055.109.091-.057-.113-.17-.204-.104-.088-.194-.227-.091-.138-.104-.204-.104-.204l-.128-.125s.09.012-.023-.157c-.113-.168-.128-.198-.128-.198l-.066-.091s-.128-.171-.143-.23a.549.549 0 0 0-.066-.135l-.098-.214-.075-.136-.096.053m.201-1.247.149.297s.033.038.146.146c.113.111.013.038.055.227.043.189.03.066.073.201.043.136.01.048.089.149.075.103.047.055.105.136.058.08.038.015.21.13.173.12 0 .162.055.298.055.136.08.129.123.297.045.169.033.093.126.197.093.103.068.146.068.146s.302.496.325.566c.022.068.09.103.123.194.033.093-.022.24-.022.24s-.096-.111-.096-.207c0-.096 0 0-.131-.23-.131-.229 0-.07 0-.07s-.171-.206-.116-.136a.718.718 0 0 1-.028-.033c-.13-.156-.055-.037-.146-.126-.09-.088-.03-.015-.083-.113-.055-.098-.042-.038-.058-.108-.015-.07-.01-.055-.022-.126-.01-.07-.043-.075-.136-.189-.09-.108-.066-.1-.141-.186-.076-.083-.063-.194-.063-.194s-.252-.453-.297-.551c-.046-.101-.066-.106-.099-.21-.032-.103-.332-.619-.332-.619M94.486 42.18c.066-.056.194-.091.26-.17.065-.077.093-.057.093-.057l.126.01.11.058s.023.045.023.159c0 .113-.015 0-.159 0-.143 0-.15.032-.15.032s-.089.04-.192.063c-.103.023-.174-.043-.108-.095m-3.296.234.065-.139s.19-.053.363-.073c.171-.022.096-.032.219-.103.123-.068.146-.058.352-.09.204-.033.27-.373.524-.49.255-.117.08-.105.257-.173.176-.065.189-.108.3-.186.11-.078.075-.038.45-.267.373-.232.25-.035.451-.116.201-.08.23-.13.405-.284.177-.154.23-.177.356-.25.123-.073.188.068.284.005.096-.063.096-.01.096-.01s-.149-.083-.174-.01c-.025.073-.06.066-.161.181-.103.114-.096.086-.187.129-.09.045-.156-.025-.413.224-.256.25-.065.033-.206.113-.14.08-.088.058-.272.136-.184.078-.07.056-.143.066-.073.012-.159.113-.3.242-.144.128-.048.057-.106.12-.058.063-.065.056-.247.144-.178.088-.098.065-.355.186-.256.121-.173.224-.229.26-.055.037-.41.178-.569.254-.156.078-.476.164-.549.186-.073.023-.209-.053-.209-.053m-6.35.91c.211 0 .12 0 .398.022.277.02.284 0 .415 0h1.33c.194 0 .055-.015.612-.09.553-.079.123 0 .267 0 .143 0 .12-.023.297-.023.176 0 .06-.172.284-.192.224-.022.29-.025.496-.07.21-.043.136-.058.29-.124.153-.065.158-.065.33-.09.17-.025.136-.073.226-.096.09-.023.146-.015.22-.04.072-.025.032 0 .415-.08.383-.081.106 0 .352 0 .247 0 .182.092.182.092s-.023.013-.293.111c-.272.098-.153.076-.266.126-.114.048-.101.025-.368.07-.267.043-.161.081-.353.104-.188.023-.274.075-.49.11-.215.033-.252.048-.655.116-.403.07.037.134-.119.162-.158.025-.191.032-.413.055-.224.023-.211.01-.37.023-.158.012-.241.037-.367.037h-.406c-.209 0-.123 0-.31.023-.186.023-.405 0-.697-.01-.292-.013-.219 0-.388 0-.168 0-.76-.098-.76-.098l-.159-.025c-.065-.013-.03-.081-.03-.081s.113-.018.325-.018m-10.795-3.411s.131.088.25.173c.118.086.12.08.198.134.078.05.28.113.557.347.277.234.204.179.204.179s.254.151.42.232c.169.08.212.042.396.156.183.113.088.04.194.118.105.076.047.048.16.144.116.095.26.163.542.267.282.103.055.032.179.113.126.08 1.269.476 1.269.476s.025 0 .14.048c.114.045.051 0 .187.035.134.038.058 0 .139.01.08.013.103-.023.103-.023l-.08-.103s.024 0 .213.01c.187.013.05.038.29.103.237.068.31.096.31.096l.244.08c.146.048.063 0 .146.01.083.01.055.01.136.056.08.043.065.01.186.066.121.055.114.022.194.057.08.038.144.058.287.091.141.033.141.043.25.07.105.026.256.066.45.137.194.07.096.01.242.042.146.033.94.07 1.201.114.262.045.176.055.305.098a3.4 3.4 0 0 0 .176.055l.12.063s-.223.073-.352.073c-.063 0 .073.028.224.058.16.03.333.063.303.063h.146l.27.033.674.043h.184c.073 0 .211.042.211.042l.217.033h.244c.09 0 .171-.022.297-.022.126 0 .03 0 .1-.01.071-.01.056 0 .232 0 .177 0 .104 0 .272-.01.17-.01.187 0 .315 0 .129 0 .41.004.41.004l.217-.022h.34c.11 0 .338-.023.338-.023s.12-.033.186-.068c.065-.038.118-.166.179-.166h.644c.146 0 .192-.053.192-.053s.211-.09.282-.126c.07-.033.08-.043.186-.043s.365-.173.476-.143c.11.027.707-.265.707-.265s.058-.047.154-.063c.096-.015.136-.072.136-.072s.078.03.312.007l-.053.078s-.095.043-.282.108c-.186.066-.183.06-.28.091-.095.033-.22 0-.22 0s-.091 0-.152.01c-.058.01.1.103-.035.179-.136.075-.21.096-.21.096l-.233.093c-.058.022-.144.032-.358.123-.216.09-.196.088-.332.146-.134.058-.481.088-.617.088s-.322.056-.416.056c-.093 0-.052.133-.166.146-.113.01-.254.015-.634.103s-.22-.013-.318-.038-.176-.01-.272-.048c-.095-.038-.065 0-.146.038-.08.035-.13.023-.397.033-.267.01-.308-.01-.524-.01-.217 0-.698.022-.808.022h-.484c-.11 0-.307-.022-.415-.022-.109 0-.396-.033-.665-.046-.27-.01-.22-.01-.22-.01s-.037-.022-.548-.065c-.511-.045-.199-.066-.38-.126a9.337 9.337 0 0 0-.96-.194c-.234-.033-.168-.063-.168-.063s-.174-.023-.431-.065l-.544-.091c-.347-.058-.46-.13-.702-.176-.242-.043-.38-.149-.554-.192-.174-.04-.124-.047-.204-.095-.08-.048-.285-.088-.376-.159-.09-.07-.088-.043-.269-.106-.184-.063-.106-.053-.184-.083-.075-.032-.075-.025-.27-.063-.193-.037-.153-.032-.432-.138-.277-.106-.088-.023-.242-.131-.154-.11-.6-.307-.685-.373-.088-.065-.13-.088-.297-.262-.164-.176-.096-.032-.161-.073-.066-.042-.098-.088-.242-.153-.143-.066-.12-.056-.244-.144-.123-.088-.242-.098-.31-.143-.07-.043-.194-.177-.438-.333-.244-.156-.284-.209-.43-.307-.147-.098-.252-.164-.252-.164l-.164-.15.025-.109-.005-.002Zm-.194-6.185s.073.275.187.378c.113.103.083.038.259.22.176.183.166.127.209.304.043.176.023.252.219.405.196.154.23.035.23.176s-.049.19.022.207c.07.015.264.264.264.264s-.428-.272-.526-.395c-.098-.126-.09-.055-.244-.327s-.282-.406-.282-.406-.066-.098-.156-.189c-.091-.085.007-.04-.101-.194-.111-.153-.121-.105-.144-.241-.022-.136-.022-.179-.022-.179l.088-.023h-.003Zm-4.875-.86.172.286s.078.2.113.257c.038.06.058.096.058.096s.022.058.08.178c.058.121 0 .048.043.19.046.143.086.284.086.284s.033.038.09.118c.058.08.056.088.109.169.055.08.103.11.168.224.066.113.252.327.33.468.076.144.129.192.217.297.088.106.209.37.274.476.066.106.743.897.882 1.159.138.264 1.057 1 1.057 1s-.163-.154-.211-.237c-.048-.086-.197-.2-.297-.315-.099-.118-.668-.75-.804-.881s-.32-.449-.32-.449-.022-.12-.06-.211c0 0 .066.058.186.156.121.098.056.088.126.201.07.114.043.081.131.16.088.075.134.095.2.165.065.068.087.076.163.141.075.066.106.136.161.237.055.103.312.363.312.363l.202.261.113.076s.244.282.355.352c.11.069.476.481.551.562.076.08.451.413.575.516.123.103.13.076.209.202.075.126.75.554.828.609.075.055.08.015.144.04.063.026.063.038.073.204.01.169.055.033.126.08.07.049.15.23.15.23s.076.033.19.09c.113.059.14.046.385.164.244.121.657.39.745.466.088.073.446.21.67.325.224.116 1.203.604 1.203.604s-.345-.055-.71-.178c-.365-.124-.143-.101-.282-.16-.138-.057-.048-.014-.128-.047s-.126-.055-.194-.066a.75.75 0 0 1-.149-.047s-.025 0-.12-.033c-.096-.033-.109-.045-.187-.11-.075-.066-.11-.031-.153-.096-.043-.066-.136-.099-.136-.099s-.318-.171-.363-.242c-.043-.067-.174-.052-.25-.105-.072-.053-.457-.129-.457-.129s-.038-.063-.104-.156c-.065-.09-.065-.055-.201-.14-.136-.089-.388-.245-.388-.245s-.31-.161-.39-.232c-.08-.07-.119-.085-.202-.136-.085-.05-.13-.13-.221-.163-.09-.033-.31-.207-.31-.207s-.038-.058-.11-.136c-.074-.075-.039-.053-.106-.12-.071-.071-.32-.21-.386-.298-.065-.088-.153-.13-.211-.216-.058-.086-.131-.096-.3-.224-.169-.129-.076-.091-.201-.202a2.19 2.19 0 0 1-.295-.337c-.08-.106-.128-.129-.209-.179-.08-.05-.146-.171-.292-.322s-.121-.131-.199-.224c-.076-.091-.106-.114-.106-.114s-.14-.176-.173-.244c-.033-.066-.2-.186-.245-.27-.048-.085-.176-.11-.242-.183a.52.52 0 0 1-.073-.09s-.166-.313-.266-.419c-.104-.106-.099-.201-.099-.201s-.022-.066-.098-.194c-.075-.129-.065-.141-.075-.212-.01-.07-.368-.352-.4-.539-.034-.186-.036-.05-.071-.166-.033-.113-.066-.035-.066-.035s-.038 0-.103-.086c-.065-.085-.01-.073-.01-.073l-.08-.219s-.064-.156-.079-.219-.261-.367-.284-.476c-.023-.105-.033-.11-.046-.168a1.597 1.597 0 0 0-.12-.343c-.076-.176-.066-.211-.066-.211s.111-.068.169-.083m2.254 5.632.16.21s.177.261.28.302c.106.037.126-.018.315.18.189.2.325.215.347.326.023.11.27.176.302.287.033.11.177.284.308.372.13.089.312.227.312.227s.209.055.34.194c.13.136.768.549.899.655.13.103.493.322.493.322l.69.49.715.33s.136.144.303.177c.166.033.153 0 .284.065.131.066.247.099.247.099s-.22-.06.262.125c.48.187.924.368 1.06.446.136.078.116.083.4.214.285.131.323.207.45.23.127.022.391.072.391.072l.265.089.236.05s-.078.005.098.06c.177.056.17.023.293.056.12.032.196.017.317.032.12.018.236.033.236.033s0 .04.094.078c.093.038.098.023.194.056.093.032.508.11.591.13.083.023.083.028.302.094.22.065.61.05.73.116.121.065.079.032.21.065.13.033.065-.008.264.033.197.038.363.038.363.038h.496s.148-.023.236 0c.088.022.433.088.433.088s.152-.036.343-.036c.191 0 .383-.01.662 0 .277.01.292.01.509.01.216 0 .12.056.453 0 .332-.055.34-.098.562-.098.221 0 .546-.085.715-.123.168-.035.065-.035.3-.058.233-.023.148.038.41-.043.26-.08.332-.043.39-.08.058-.038-2.183.536-2.183.536h-.365c-.159 0-.552-.005-.683.01-.133.015-.392 0-.574.015a4.344 4.344 0 0 0-.423.048c-.128.023-.07.023-.282.023-.211 0-.372.005-.256.015.118.01.18.01.118.01-.063 0-.224.12-.224.12s.063.054-.088.054c-.152 0-.053.01-.275-.023-.224-.033-.312.07-.4-.043-.088-.113.098-.078-.176-.191-.272-.114-.006-.08-.288-.114-.282-.032-.224-.022-.365-.032-.143-.01-.443-.119-.67-.174-.226-.053-.219-.015-.377-.09-.159-.076-.121-.056-.277-.099-.159-.045-.048-.045-.217-.045-.168 0-.128.025-.209.025-.08 0 .023.075-.153-.038-.176-.113-.088-.09-.234-.113l-.212-.033s-.005.01-.169-.023c-.163-.032-.05-.012-.239-.068-.186-.057-.435-.095-.516-.146-.08-.052-.171-.1-.484-.231-.31-.131-.43-.184-.611-.24-.18-.055-.585-.153-.763-.234-.18-.08-.29-.125-.6-.267-.31-.143-.463-.241-.65-.317-.186-.075-.188-.075-.536-.219-.347-.143-1.092-.574-1.206-.64a23.818 23.818 0 0 1-.813-.55c-.242-.17-.891-.683-.93-.764-.037-.08-.755-.521-.933-.71-.18-.189-.63-.514-.642-.624-.005-.046-.366-.617-.366-.617l.013-.119-.002-.005Zm-3.432-5.776.208.023.033.254.438.838s-.025.073.056.19c.083.115.148.203.163.312.016.11.033.199.033.199.088.125.358.606.358.606s-.043-.075.088.172c.13.246.204.355.27.47.065.116.065.033.112.247.05.214.61.756.726.902.116.148.267.219.345.352.078.134.045.204.126.297.08.093.196.227.264.343.065.116.765.667.765.667s.121.123.237.232c.068.063.134.123.169.148.1.07.033.07.199.172.163.098.34.241.438.372.098.131.818.748.818.748l.61.335.644.569s.121.11.277.204c.154.093.126.043.323.126.198.083.012.08.259.229.247.148.29.093.36.186.073.093.285.177.285.177l.203.148s.62.297.756.315c.136.015.093.033.368.103.274.07.581.224.581.224l.176.018s.116.07.212.11c.093.038.61.315.61.315l.573.318s.07-.056.227 0c.154.055.196.083.317.12.121.038.164.089.302.121.136.033.116.033.32.05.202.018.234.018.234.018h.222s.01.07.252.07.516.182.66.182c.143 0 .362.08.503.08.141 0 .406.018.406.018s.148.016.284.033c.139.018.159.05.302.05.144 0 .186.018.406.018h.4c.138 0 .176.033.385.033.21 0 .708.032.8.032.094 0 .537-.032.84-.055.302-.022.395-.038.629-.038.234 0 .33.018.531 0 .204-.015.275-.015.4-.032.126-.018-.017-.134.225-.184.241-.05.367-.028.503-.083.139-.056.088-.005.479-.139.39-.13.38-.153.516-.153s-.013.055.383-.05c.395-.107.533-.154.702-.205.171-.05.048.033.418-.116.368-.148.484-.18.484-.18l-.106.188-.937.28-.408.226-1.3.496s.716-.032.87-.065c.153-.033.543-.222.68-.237.065-.008.188-.013.31-.023.135-.01.269-.03.322-.065.098-.073.377-.199.543-.264.164-.066.396-.116.396-.116s.027.078-.078.158c-.106.083-.149.166-.318.182-.17.017-1.183.385-1.183.385s-.161.023-.3.073c-.138.048-.29.075-.448.098-.161.023-.6.176-.6.176l-.956.164s-.332.11-.466.133c-.133.023-.171.023-.385.046s-.345.045-.345.045l-.129.018-.168.022-.232.046-.153.017h-.167s-.166-.017-.287-.017c-.12 0-.418-.048-.418-.048h-1.435c-.116 0-.106.033-.375 0-.27-.033-.479-.048-.479-.048l-.176-.033-.549-.055s0-.033-.252-.08c-.251-.051-.941-.14-1.047-.205-.103-.065.05-.017-.317-.083-.368-.065-.275-.015-.474-.08a9.87 9.87 0 0 0-.443-.131s-.284-.129-.428-.176c-.143-.05-.247-.06-.41-.099a10.567 10.567 0 0 1-.92-.297c-.224-.088-.095-.005-.375-.11-.28-.106-.216-.074-.327-.121-.11-.05-.148-.084-.373-.182-.224-.098-.866-.468-1.097-.589-.23-.12-.154-.065-.554-.252-.4-.186-.288-.242-.595-.342-.307-.098-.226-.023-.413-.171-.186-.149.005-.033-.231-.204-.237-.172-.237-.187-.418-.318-.182-.13-.28-.292-.534-.46-.252-.172-.325-.177-.504-.33-.181-.154-.115-.033-.405-.307a2.035 2.035 0 0 0-.131-.114 5.084 5.084 0 0 0-.186-.14c-.056-.039-.23.11-.282.072-.043-.03.035-.252-.008-.282a1.321 1.321 0 0 1-.282-.252c-.136-.196-.191-.251-.28-.395-.088-.143-.113-.302-.251-.438-.139-.139-.028-.07-.176-.224-.15-.154-.056-.154-.215-.27-.158-.115-.166-.07-.249-.18-.083-.112-.05-.056-.12-.182-.074-.126-.089-.078-.144-.166-.056-.089-.19-.237-.19-.237s-.05-.078-.138-.181c-.088-.104-.138-.182-.138-.182s.013-.022-.098-.148-.048-.27-.048-.27-.01.06.11.139c.122.078.049-.03.205.143.156.172.199.194.287.32.088.126.403.479.403.479l.251.221.084-.083-.718-.856s-.066-.181-.22-.335a22.391 22.391 0 0 0-.24-.23 1.614 1.614 0 0 1-.205-.218c-.103-.144-.103-.103-.204-.26a2.122 2.122 0 0 0-.171-.236c-.1-.098-.176-.04-.26-.24-.08-.196-.113-.324-.113-.324s-.073.043-.138-.156c-.066-.197-.33-.77-.38-.897-.05-.126.027-.083-.066-.231-.093-.149-.028-.018-.116-.217-.088-.196-.166-.32-.214-.483-.048-.167-.098-.275-.098-.275l-.078-.423-.002-.005Zm2.63-.23s.016.071.066.225c.05.154.083.088.164.27.083.18.048.148.098.269.05.12.05.11.05.11s0 .061-.055.172c-.055.11.038.143.038.143s.033.04.088.172c.055.13 0 .103.055.204.056.1.099.088.099.088s.105.204.16.352l.177.466-.758-.891s.05.158.181.403c.131.241.116.148.262.377.149.23.139.192.292.4.154.21.038.056.159.275.12.22.116.088.305.277.186.189.13.116.204.237.07.12.08.136.153.242.07.103.116.158.22.287.103.128.082.136.186.201.105.066.058.143.158.264.098.121.595.469.809.738.213.272.292.272.47.456.063.063.18.211.18.211l-.056.091-.265-.191-1.415-1.166s-.566-.594-.73-.808c-.164-.214-.765-.877-.864-1.04-.098-.164-.559-.786-.717-1.12-.159-.333-.58-1.245-.58-1.245l.01-.083.089-.065.196-.096s.103-.078.171-.143l.023-.152.098-.113.146-.088.129.274.005-.002Zm-3.69-1.9c.098.07.228.179.228.284 0 .106.023.2.023.2l.088.102s.182.537.192.635c.01.098-.033.025.01.197.043.17.005.213.088.31.08.095.1-.016.146.21.048.225.048.13.07.26.02.131.131.4.131.46 0 .061-.015.071.01.144.026.073.026.111.048.184.023.073-.017-.01.038.118.055.129.317.607.317.607s.091.172.119.272c.025.098.088.214.123.318.038.103.05.216.05.216l.023.093s-.322-.425-.468-.773c-.146-.347-.313-.727-.373-.823-.063-.096-.161-.204-.25-.423a2.583 2.583 0 0 1-.163-.504c-.043-.196-.023-.242-.108-.503-.088-.262-.154-.292-.174-.416-.023-.123-.088-.13-.088-.277 0-.146.033-.194 0-.282a2.351 2.351 0 0 1-.066-.211c-.032-.124-.055-.141-.055-.245v-.113s-.058-.11.04-.038M75.274 18.8c.053-.088.098-.39.322-.65.222-.26.977-1.062 1.035-1.135.058-.073.328-.187.413-.26.083-.073.665-.523.773-.579.106-.055.096-.045.192-.065.095-.023.143-.058.143-.058l.088-.058s.076-.045.174-.121c.098-.078.025-.053.12-.126.096-.073.081-.068.147-.096.065-.027.26-.09.41-.138.151-.048.277-.252.715-.415.439-.164.328-.089.537-.177a6.46 6.46 0 0 1 .654-.201s.04 0 .252.01.1-.035.1-.035.066-.023.164-.063l.121-.048.086.04s.098 0 .154-.025c.055-.025.03-.038.088-.088.058-.053.231-.108.231-.108s.088.01.25.08c.16.07.065.015.216.048s.083-.015.176-.025c.091-.01.076-.056.147-.046.067.013.037.015.259.015s.229 0 .41.023c.18.023.323-.043.582-.02.26.023.13.01.342.045.212.033.16 0 .325 0 .166 0 .277.01.451.036.171.025 1.156.12 1.156.12s.12.056.199.081c.078.025.075.023.209.023.133 0 .261.022.375.022.113 0 .15.02.35.066.201.043.11 0 .34.098.229.098.722.317.81.42.089.104.104.023.267.066.164.043.147.033.147.033s.163 0 .277.022c.113.023.063.081.063.081s.082.063.178.159c.096.095.056.022.172.055.118.033.297-.023.52.033.225.055.079-.023.079-.023s.04 0 .153.023c.114.022.204.075.325.12.121.046.144.089.212.17.07.08.08.09.249.145.169.056.408.159.549.247.143.088.785.715.984.836.197.121.693.458.814.66.12.201 1.299 1.486 1.299 1.486s.433.387.491.5c.058.114.29.461.466.748.174.29.508 1.295.508 1.295s.111.015.152.032c.443 1.257.48 3.087.518 3.878.038.788-.277 2.579-.488 3.173l-.778 2.173s-.033.219-.033.325c0 .105.015.297.015.297s0 .045-.231.098c-.232.055-.026.068-.096.161-.07.096-.083.181-.171.32 0 0 .01.06 0 .146-.01.088-.056.161-.129.332-.073.172-.133-.103-.133-.103l-.124.103s-.156.202-.239.29c-.08.088-.09.103-.302.493s-.275.436-.275.436l-.055.151.015.191-.13.056v.216s-.003.063-.018.187c-.016.123-.131.055-.267.098-.136.043-.106.033-.262.055-.159.023-.118.119-.257.252-.138.136-.252.282-.38.325-.129.043-.056.028-.1.08-.044.056-.059.187-.059.305h-.103l-.297.076.015.136s0 .01.015.126c.015.115-.066.088-.169.176-.103.088-.106.04-.206.005-.098-.038-.232.023-.232.023l-.209.267s-.153.125-.254.186c-.1.063-.504.46-.756.614-.251.154-1.727.88-1.727.88s-.695.253-.901.296c-.204.043-.831.187-1.048.22-.216.032-1.143.233-1.327.256-.184.023-1.193.078-1.37.078-.176 0-1.17-.184-1.354-.194-.187-.012-.172-.015-.275-.025-.103-.01-.085-.1-.085-.1h-.348c-.106 0-.191-.016-.191-.016s-.056-.015-.192-.065c-.136-.053-.128-.07-.191-.119-.063-.047-.015.01-.025.146-.01.134-.073.071-.073.071s-.156-.015-.25-.015c-.093 0-.08 0-.156-.121-.078-.12-.015-.093-.015-.093l-.241-.11s-.167-.041-.617-.228c-.151-.063-.363-.146-.532-.13-.09.007-.11.188-.216.11-.202-.146.12-.191.005-.244-.247-.116-.285-.161-.433-.26-.149-.097-.139-.125-.257-.213-.12-.088-.171-.121-.171-.121l-.161-.078-.242-.126-.31.11s-.08-.148-.065-.259c.017-.11-.174-.196-.174-.196l-.254-.297s-.232-.088-.617-.466c-.386-.375-.287-.176-.287-.176l-.277-.255-.607-.74s-.408-.45-.519-.758c-.11-.307-.242-.433-.242-.433l-.244-.123-.254-.376-.386-.506s-.385-.748-.496-.946c-.108-.2-.692-.914-.757-1.44-.066-.527-.285-.827-.285-1.058 0-.232 0-.287.098-.474.098-.188.245-.231.245-.231s-.038-.197.005-.287c.032-.07.15-.043.15-.043l.111-.244s-.058-.099-.022-.157c.04-.067.579.081.579.081s.045-.045.221-.12c.18-.079.363-.409.363-.409l.378-.143s.04-.094.088-.2c.01-.024-.093-.067-.083-.092.025-.053.088-.06.133-.099a.33.33 0 0 0 .08-.108s-.077-.058-.077-.161c0-.053.058-.078.073-.128.02-.06-.005-.141-.005-.141s0-.099-.046-.386c-.045-.287-.166-.231-.345-.498-.178-.265-.098-.375-.098-.375s.01-.109.06-.156c.076-.071.205-.089.205-.089s.05-.025.073-.173c.007-.048.012-.109.012-.187 0-.058-.085-.116-.085-.194 0-.508-.078-.3-.078-.3l-.6-.563s-.163-.21-.254-.54c-.088-.329.045-.626.045-.626s.07-.217.099-.438c.007-.06-.071-.063-.056-.134.015-.07.126-.035.151-.11.088-.273.121-.675.159-.92.098-.624.32-.51.516-1.004s.292-.753.514-.864c.221-.108.239-.204.294-.292M64.968 29.828c-.043.184-.015.055-.015.126 0 .07-.096.183-.162.302-.067.12-.025.063-.035.166-.01.103-.032.108-.078.21-.045.097-.12.024-.12.024l-.079-.063s-.015-.043.088-.221c.104-.177.06-.046.182-.23.12-.183.126-.239.163-.438.036-.196.053-.19.073-.271.023-.084.028.211-.015.392m-1.115-3.585c-.083.075.11-.053.06.025-.048.08-.032.015-.098.093s-.03.055-.123.206c-.094.152.156.056.052.16-.105.105-.206.09-.279.138-.075.047-.083.08-.146.098-.063.015-.02-.083-.02-.083s.017-.083.055-.194c.038-.113.04-.05.154-.106.113-.055.106-.073.211-.133.104-.06-.136-.043-.07-.129.063-.085.085-.138.199-.229.113-.09.088.078.005.154Zm.378-.76c-.081.075-.134.125-.257.216-.124.09-.154-.003-.154-.003s-.033-.07-.088-.025c-.056.045-.06.088-.06.088s.138-.007-.069.174c-.206.181-.098.058-.266.123-.167.066-.066.058-.151.162-.086.105-.328.145-.39.176-.064.027-.154 0-.154 0s-.088 0-.088-.056c0-.055.047-.07.186-.181.138-.11.093-.025.176-.073.083-.05.149-.083.247-.141.098-.058.156-.108.272-.159.116-.052.148-.083.229-.115.053-.023.337-.172.176-.172-.161 0-.017.043.013.026.09-.05.214-.142.287-.174.07-.033.171.06.093.133m.541.106-.143.055s-.035-.042-.078-.042-.046-.015-.088.007c-.043.023-.078.02-.146.08-.068.061-.141.13-.141.13s.073.072.085.115c.013.043.06.106.04.154-.022.047-.093.088-.093.166 0 .078.015.236.015.236l-.058.383s.106-.015.106.023a.598.598 0 0 1-.007.083s-.169.136-.214.189c-.046.053-.058.196-.058.196s.04.083.058.174c.02.09.178.08.178.08s.232.03.232.084c0 .052-.075.11-.075.166 0 .055-.066.29-.073.387-.008.099.103.18.148.2l.2.085-.084.1a.45.45 0 0 0-.063.185c-.015.078-.028.115-.007.18.02.066.047.117.047.117s.043.055.093.055.005.076.119 0c.113-.078.158-.065.15-.148-.007-.083.041-.048-.042-.124a1.34 1.34 0 0 0-.153-.128s-.03-.025.017-.056c.05-.03.171-.15.171-.15l.091.07.123.14s-.098.14-.116.232c-.017.096-.045.202 0 .285.046.086.116.118.16.184.044.065.09.11.14.118.05.008.164.086.164.086l-.023.11s-.106.056-.048.212c.058.156.086.201.2.26.115.057.269.123.269.123s.035.556.035.74c0 .184-.018.491.13.99.15.498.507 2.404 1.63 4.054 1.123 1.651 1.397 1.999 1.579 2.17.181.169.312.169.327.29.018.12-.055.153.066.315.12.158.027.148.226.314.197.164.313.177.378.36.065.187.655.71 1.264 1.254.61.544 1.314 1.12 1.561 1.292.247.169.494.247.615.345.12.098.664.433.75.493.088.061.375.232.375.232l.176.038.182.023.103.176.267.078s.085-.023.206.023c.121.045.187.06.187.06s-.046.023.07.128c.116.106.27.096.27.096l.294.139.252.136.257.047s.388.212.476.212c.088 0 .216.045.216.045s.05.106.149.088c.098-.017.214-.05.214-.05l.184.11.32.112.07.083.232.105c.088.038.198.094.198.094l.2.04s.128.043.193.055c.066.01.033-.005.096.023.063.025.38.103.38.103s.088.038.146.038c.058 0 .131.023.202.023.07 0 .241.052.241.052l.111.048.204-.035.222.043.078.106h.237s.138.073.201.098a.727.727 0 0 0 .227.025h.176c.06 0 .048.005.13.015.086.01.305.023.305.023l-.083-.096.119.005s.098.262.168.262h.214l.147-.053s.219.07.284.106c.068.038.08 0 .144.028.063.025.241.035.241.035s.088.025.265.015c.173-.01.196-.01.196-.01s.025-.005.118.04c.091.043.015.033.212.023.196-.01.209-.088.3-.108.093-.023-.026-.066.203-.043.232.022.33.078.33.078s-.032.048.078.06c.111.015.046.038.202-.027.159-.066-.055-.121.272-.177.325-.055.325-.13.534-.065.209.065.093-.018.277.09.186.109.27.109.27.109s-.051.085.173.007c.221-.078.184-.047.36-.136.174-.088-.023-.231.252-.098.274.131.317-.04.634-.04s.368-.05.368-.05.04-.046.171-.06c.131-.018 0-.051.33-.034.327.016.307.05.493-.015.187-.065.126.01.308-.136.18-.148.093-.116.33-.199.236-.083.229-.113.4-.083.169.033.136.048.242.07.103.023.088.122.211.023.121-.098.093-.078.166-.193.073-.116-.01-.106.139-.16.148-.055 0-.138.25-.087.246.048.19.038.357.005.163-.033.156-.02.33-.083.17-.06.334-.338.54-.37.21-.033.64-.177.64-.177l.265-.377c.186-.079.287-.146.529-.212.241-.065.397-.065.397-.065l.255-.451s-.078-.22.163-.254c.242-.033.2.065.562-.066.36-.13.493-.229.493-.229s.089.123.222-.199c.131-.32-.033-.232.242-.473.274-.242-.098-.21.352-.34.451-.131.484-.454.484-.454l.375-.382s-.141-.068.133-.265c.275-.199.54-.053.663-.239.12-.189.211-.297.211-.297l.264-.221.255-.275-.03-.196.549-.323.047-.123s.066-.202.081-.327c.033-.242-.098-.2.078-.398.176-.197 0-.21.297-.33.116-.045.34-.121.34-.121l-.043-.191.242-.39.169-.016.123-.31s.149-.536.4-.778c.255-.241.451-.614.451-.614s-.098-.045 0-.297c.098-.254.164-.3.164-.3l.209-.199s.111.01.111-.166v-.31s.166-.188.123-.408c-.045-.218-.161-.395-.045-.448.116-.055.168-.105.264-.138.093-.033.237.322.134-.1-.106-.424-.131-.29-.106-.535.028-.241.01-.181.093-.367.081-.187.103-.297.103-.297s.093-.094.111-.232c.015-.136-.008-.21.033-.385.037-.177.098-.358.116-.552.017-.191.017-.28.05-.498.033-.22.033-.285.033-.406v-.357c0-.166-.015-.214 0-.4l.032-.35.202-.373.065-.466-.325-.373c.016-.252-.05-.468-.05-.468s.066-.192.066-.41c0-.22.057-.461.057-.461l-.105-.094s.138-.332.189-.478c.047-.149.047-.136.047-.252 0-.116-.022-.148-.022-.148-.023.1-.139.199-.139.199s-.138.022-.088-.116l.048-.139s-.038.025.018-.138c.055-.164.236-.285.055-.363-.181-.078-.287-.033-.287-.126s.055-.231.055-.231.169-.897.071-1.186c-.098-.293-.154-.345-.154-.345s-.022-.225-.022-.33c0-.106-.046-.106-.046-.106l-.116-.106s-.065-.022-.088-.13c-.022-.111-.022-.242-.07-.406-.051-.166-.192-.62-.262-.73-.073-.111-.227-.607-.358-.839-.131-.229-.108-.181-.279-.488-.169-.308-.315-.801-.579-1.04-.265-.237-.247-.912-.433-1.196-.187-.287-.27-.4-.27-.4s-.111-.2-.189-.076c-.075.12-.209.005-.209.005s-.055-.232.033-.287l.088-.056-.06-.133s-.453-1.058-.607-1.178c-.154-.121-.24.098-.34-.21-.103-.307-.458-.18-.514-.455-.055-.272-.138-.348-.194-.491-.055-.141-.11-.222-.11-.222s-.106-.252-.192-.287c-.085-.035-.113-.236-.113-.022 0 .213.096.377.096.377s.105.114.128.232c.023.116.066.098.05.214-.015.116-.025.126-.025.126s.096.108-.189-.088c-.284-.197-.352-.21-.352-.21s-.045.195-.045-.2c0-.396.032-.363-.023-.451a.667.667 0 0 0-.262-.23c-.088-.032-.277-.063-.375-.241-.098-.18-1.13-1.068-1.362-1.254-.23-.187-.975-.826-1.491-.99-.516-.164-1.01-.64-1.35-.871-.34-.23-1.558-.947-1.974-1.123-.415-.176-1.921-.28-2.198-.335-.277-.055-.687-.227-.813-.252-.129-.028-.688-.214-.912-.25a6.392 6.392 0 0 0-.486-.057s-.068-.015-.068.053-.023.176-.023.176-.047.023-.095-.048c-.048-.07.184-.186-.08-.231-.265-.043-.323-.066-.323-.066l-.03.123a.792.792 0 0 0-.159.06l-.103.011c-.078-.033-.144.038-.144-.025s-.022-.136-.022-.136-.28-.053-.134-.156c.146-.104.136-.116.194-.149.058-.033.09-.128.01-.176-.08-.048-.043-.121-.128-.07-.086.05-.119-.036-.119.105s.063.129-.022.179c-.086.05.007.038-.121.063-.129.025-.26.025-.26.025h-.118c-.065 0-.846-.048-1.017-.048-.171 0-.38.023-.665 0-.284-.022-.292.01-.493-.022-.202-.033-.232-.144-.418-.046-.187.098-.393.21-.479.22-.088.01-.176.01-.262.01h-.16s-.562.135-.7.145c-.14.01-.185.01-.293.066-.11.055-.257.068-.335.09-.08.023-.4.046-.4.046s-.076-.06-.116 0l-.078.12h-.24c-.065 0-.68.167-.823.195-.143.025-.269.211-.549.29-.276.077-.057-.01-.551.065-.491.078-.45-.015-.624.153-.172.169-.19.197-.262.267-.073.07-.471.11-.542.156-.07.043-.423.194-.528.23-.106.037-.21.118-.323.128-.113.01-.214.065-.377.14-.164.079-.69.61-.743.68-.053.071-.632.263-.816.346-.184.08-.22.058-.292.113-.073.055-.106.164-.26.23l-.226.097s-.01-.017-.129.056c-.118.073-.153-.023-.163.095-.013.119-.048.23-.048.23s.018.015-.096.015c-.113 0 .164.053.103.09-.063.038.02-.007-.078.063s-.307.38-.395.459c-.088.075-.146.05-.206.12-.058.07-.026.114-.07.192-.046.078-.066.058-.154.163-.089.106-.121.109-.2.184-.078.073.006.02-.135.129-.144.11-.121.11-.23.219-.11.108-.327.292-.526.48-.196.19-.307.29-.46.497-.154.209-.318.355-.35.516-.033.161.105.073.02.184-.089.11-.01.088-.119.12-.106.033-.136-.113-.184.099-.047.214-.347.38-.347.38-.144.08.186.201.186.201s-.07-.098-.07.088c0 .187-.25.469-.333.685-.085.217-.284.37-.372.502-.088.13-.121.148-.174.281-.055.131-.295.622-.34.776-.043.154-.043.22-.144.416-.098.198-.12.163-.196.372-.076.21-.405.94-.46 1.063-.056.123-.099.191-.252.463a1.886 1.886 0 0 0-.235.652c-.043.222-.063.116-.108.42-.048.303-.07.467-.103.598-.033.13-.048.314-.048.314s-.078-.055-.103.015c-.026.07-.038.048-.038.136 0 .088.033.078-.01.151-.043.073-.124.154-.124.154s-.005-.12-.08.055c-.078.177-.388.298-.478.434-.091.136-.094.14-.114.3-.022.158-.055.158-.113.193s-.083.015-.116.078-.048.174-.048.174-.01-.156-.128.128c-.119.287-.139.38-.139.436 0 .055.083.13-.156.196s-.554.144-.722.212c-.17.068-.237.138-.459.159-.221.02-.536-.084-.692-.06-.156.022-.179.17-.179.296 0 .126.005.192.048.242.04.048.14.103.196.07.056-.032.116-.118.202-.143.085-.025.126-.09.272-.151.146-.06.186-.126.249-.126s.148.008.194 0c.048-.008.048.01.229-.083.179-.09-.028-.063.055-.07.083-.008-.02.15.086.092.106-.057.108-.103.285-.148.176-.043.123-.068.312-.068s.239-.045.246 0c.008.045.008.113.008.113s-.02.068-.035.144c-.018.073-.098.05-.033.186a.972.972 0 0 0 .096.176l-.038.111-.013-.025Z" fill="#E9D601"/><path d="M31.349 0h-4.08v39.545h4.08V0ZM106.616 20.874c0-2.249-.068-4.185-.068-5.807h3.87c0 1.307-.038 1.957-.038 3.316 1.466-2.47 4.047-3.837 8.075-3.837.524 0 1.385.03 1.866.156l-.262 4.132a7.7 7.7 0 0 0-2.198-.315c-4.968 0-7.166 2.788-7.166 8.405v12.62h-4.079V20.872v.003ZM56.721 0v18.62c-2.165-2.719-5.335-4.184-8.893-4.184-7.688 0-12.867 5.439-12.867 12.867 0 7.428 5.389 12.867 12.24 12.867 2.838 0 5.298-.92 7.096-2.312v-4.021c-1.509 1.596-3.654 2.566-6.26 2.566-5.283 0-8.685-3.976-8.685-9.103 0-5.126 3.402-9.102 8.685-9.102s8.53 3.817 8.672 8.787h.012V39.54h4.08V0h-4.08ZM24.168 26.62c0-7.358-4.507-12.18-11.613-12.18C4.958 14.44 0 19.723 0 27.307c0 7.114 4.706 12.867 12.396 12.867 4.553 0 8.002-1.36 10.88-5.073l-3.087-2.408c-1.933 2.458-4.288 3.715-7.793 3.715-2.818 0-5.147-1.45-6.56-3.591-.01-.013-.014-.023-.024-.035-.06-.089-.114-.19-.172-.282-.677-1.128-1.103-2.632-1.236-3.798-.166-1.465-.151-2.76.033-3.918.657-4.061 3.915-6.582 7.957-6.582 4.5 0 7.219 2.916 7.375 7.048H6.059v3.455h18.109v-2.087.002ZM142.635 35.308V25.03c0-6.542-3.43-10.594-10.253-10.594-3.558 0-6.938 1.166-9.73 3.624l2.357 2.765c2.065-1.66 4.862-2.624 7.478-2.624 3.818 0 6.038 1.705 6.038 6.587 0 0 .031 1 .031 2.125v1.065c0 4.341-2.606 8.743-7.219 8.743-3.087 0-5.386-1.15-5.386-4.235 0-3.687 4.459-4.71 10.072-4.71h.966v-3.454h-.702c-6.023.015-14.73.595-14.73 8.58 0 4.76 4.132 7.268 9.102 7.268 3.334 0 6.386-1.38 8.159-3.862 0 1.047 0 2.135.261 3.236h3.923c-.206-1.254-.365-2.826-.365-4.238M5.132 63.035h9.13v-2.42h-9.13v-5.43h10.467v-2.59H2.032V71.37H15.63v-2.619H5.132v-5.716ZM27.861 67.717a3.101 3.101 0 0 1-1.196 1.153c-.51.284-1.165.425-1.961.425-.95 0-1.735-.214-2.362-.64-.627-.425-1.085-1.031-1.38-1.82-.294-.785-.44-1.712-.44-2.772 0-.778.08-1.488.241-2.133a5.374 5.374 0 0 1 .725-1.692 3.27 3.27 0 0 1 1.224-1.11c.494-.257 1.07-.386 1.735-.386.703 0 1.3.139 1.793.414.493.274.871.65 1.138 1.123.264.473.426.987.483 1.535l2.901-.88c-.171-.95-.531-1.778-1.08-2.489a5.474 5.474 0 0 0-2.12-1.649c-.864-.388-1.874-.584-3.03-.584-1.155 0-2.208.199-3.099.597A5.993 5.993 0 0 0 19.2 58.5a7.595 7.595 0 0 0-1.353 2.53c-.304.957-.455 1.997-.455 3.115 0 1.043.14 2.02.425 2.931.285.912.72 1.717 1.31 2.417.586.703 1.342 1.252 2.26 1.65.92.397 2.015.596 3.287.596.949 0 1.795-.113 2.545-.342a5.841 5.841 0 0 0 1.95-.995 5.147 5.147 0 0 0 1.336-1.606 6.358 6.358 0 0 0 .683-2.12l-2.76-.655c-.096.645-.285 1.209-.57 1.692l.003.003ZM43.876 57.093c-1.1-.587-2.352-.881-3.754-.881-1.403 0-2.594.284-3.684.853-1.09.57-1.96 1.423-2.604 2.561-.645 1.139-.967 2.571-.967 4.296s.307 3.11.924 4.268c.617 1.156 1.473 2.04 2.574 2.647 1.1.606 2.362.911 3.784.911 1.423 0 2.627-.285 3.727-.854s1.967-1.427 2.604-2.573c.634-1.148.951-2.573.951-4.28 0-1.708-.317-3.168-.951-4.324-.635-1.156-1.504-2.03-2.604-2.616v-.008Zm-.03 9.84c-.323.779-.788 1.365-1.395 1.763-.607.398-1.337.597-2.191.597-1.327 0-2.372-.473-3.13-1.423-.758-.947-1.138-2.284-1.138-4.01 0-1.101.161-2.035.483-2.803.323-.768.791-1.348 1.408-1.735.617-.388 1.332-.585 2.148-.585.911 0 1.682.22 2.319.655.634.436 1.123 1.058 1.465 1.863.343.806.512 1.768.512 2.889 0 1.12-.161 2.009-.484 2.787l.003.003ZM53.637 51.315h-3.044V71.37h3.044V51.315ZM67.853 66.652a5.89 5.89 0 0 1-.44 1.037 2.908 2.908 0 0 1-.698.854 3.303 3.303 0 0 1-1.053.569c-.418.143-.919.214-1.508.214-1.402 0-2.485-.43-3.243-1.295-.7-.795-1.073-1.951-1.126-3.464l10.571-.078c.076-1.385-.028-2.594-.312-3.626-.285-1.033-.71-1.896-1.28-2.589a5.3 5.3 0 0 0-2.09-1.55c-.825-.343-1.76-.512-2.802-.512-1.118 0-2.12.199-3.001.597a6.071 6.071 0 0 0-2.219 1.68c-.596.72-1.057 1.568-1.38 2.545-.322.977-.483 2.044-.483 3.2 0 1.156.161 2.196.483 3.115.323.92.796 1.707 1.423 2.362S60.09 70.867 61 71.219c.912.35 1.954.527 3.13.527.93 0 1.75-.106 2.46-.313a5.957 5.957 0 0 0 1.864-.896 5.233 5.233 0 0 0 1.321-1.395 6.03 6.03 0 0 0 .784-1.864l-2.702-.626h-.003Zm-7.566-5.404c.342-.816.82-1.435 1.437-1.863.617-.426 1.342-.64 2.176-.64.74 0 1.395.181 1.961.541.57.36 1.005.912 1.31 1.65.191.465.3 1.01.325 1.631l-7.6.066c.086-.504.214-.965.39-1.385Z" fill="#fff"/></g><defs><clipPath id="a"><path fill="#fff" d="M0 0h143v71.743H0z"/></clipPath></defs></svg>